<svg xmlns="http://www.w3.org/2000/svg" version="1.1" xmlns:xlink="http://www.w3.org/1999/xlink" viewBox="0 0 5.180501953125 6.66352580852611"><g transform="matrix(0.8571428571428571,0,0,0.8571428571428571,0.7400717075892858,3.8739045947818)"><rect width="7.52694280071361" height="7.52694280071361" x="-1.6049289198880552" y="-4.3959700392953405" fill="#ffffff"></rect><g transform="matrix(1,0,0,1,0,0)" clip-path="url(#SvgjsClipPath98734)"><g clip-path="url(#a13e484c2-f821-4ea1-895d-a1fb0ce86a581fb956b1-7dd8-44eb-ae5f-c1aeaf505212)"><path d=" M 2.086897882351593 -3.2862917353877723 C 2.0457048077455124 -3.4630975418700993 1.8793481602978783 -3.528621690762739 1.7025046312197583 -3.4874286161566577 L 1.6705913151787837 -3.4799972647854145 C 1.4937477861006636 -3.4388041901793334 1.3734504281164222 -3.3065110467328815 1.414643502722503 -3.129705240250555" fill="#e39514" transform="matrix(1,0,0,1,0,0)" fill-rule="nonzero" stroke-dasharray="none" stroke-miterlimit="10" stroke-linejoin="round" stroke-linecap="butt" stroke-width="0.06650493638326055" stroke="#d4671d"></path></g><g clip-path="url(#a13e484c2-f821-4ea1-895d-a1fb0ce86a581fb956b1-7dd8-44eb-ae5f-c1aeaf505212)"><path d=" M 1.9205412349039592 -3.247512906912451 L 1.9190323310722346 -3.2540011933888664 C 1.8971909481080214 -3.3477795665305488 1.8138240114052389 -3.361623759186622 1.7200456382635565 -3.3397823762224084 C 1.6262672651218741 -3.3179409932581954 1.557612140778406 -3.268675283152388 1.5794535237426195 -3.174896910010706 L 1.580962427574344 -3.1684086235342903" fill="#ffffff" transform="matrix(1,0,0,1,0,0)" fill-rule="nonzero" stroke-dasharray="none" stroke-miterlimit="10" stroke-linejoin="round" stroke-linecap="round" stroke-width="0.06650493638326055" stroke="#d4671d"></path></g><g clip-path="url(#a13e484c2-f821-4ea1-895d-a1fb0ce86a581fb956b1-7dd8-44eb-ae5f-c1aeaf505212)"><path d=" M 0.5511355624223229 -2.63557695795655 C 0.5068115123654136 -2.825887453732812 1.0524688605128123 -3.045319793461358 1.7507518312391515 -3.207979626521267 C 2.4490725245612843 -3.370639459581176 3.035545721356833 -3.4148880644464987 3.079869771413742 -3.2246152912660304 Z" fill="#ffffff" transform="matrix(1,0,0,1,0,0)" fill-rule="nonzero"></path></g><g clip-path="url(#a13e484c2-f821-4ea1-895d-a1fb0ce86a581fb956b1-7dd8-44eb-ae5f-c1aeaf505212)"><path d=" M 0.5511355624223229 -2.63557695795655 C 0.5068115123654136 -2.825887453732812 1.0524688605128123 -3.045319793461358 1.7507518312391515 -3.207979626521267 C 2.4490725245612843 -3.370639459581176 3.035545721356833 -3.4148880644464987 3.079869771413742 -3.2246152912660304 Z" fill="none" transform="matrix(1,0,0,1,0,0)" fill-rule="nonzero" stroke-dasharray="none" stroke-miterlimit="10" stroke-linejoin="round" stroke-linecap="round" stroke-width="0.06650493638326055" stroke="#d4671d"></path></g><g clip-path="url(#a13e484c2-f821-4ea1-895d-a1fb0ce86a581fb956b1-7dd8-44eb-ae5f-c1aeaf505212)"><path d=" M 3.363355078798996 -2.696423504970843 C 3.3857623007001063 -2.69468826556436 3.40579299906625 -2.6835978224011843 3.4211838181498404 -2.66718849323118 C 3.4833503554462535 -2.6009715469572012 3.5812165338825395 -2.5825882663623885 3.663174270162669 -2.621732765300477 C 3.7434032102986796 -2.6601143049679803 3.790475301869802 -2.7451409208239266 3.7804160978876684 -2.8335074180830206 C 3.821386658989222 -2.8323171835196645 3.861795126163888 -2.8432625104516784 3.8965639703346673 -2.8649680629744783 C 3.9787992291636565 -2.9161576254657344 4.015427869678771 -3.0206492158126608 3.982760101721934 -3.1118247298446184 C 3.9629692148953612 -3.1676051082588614 3.9204382803775015 -3.2123676016057496 3.8657419635760384 -3.2349827015562758 C 3.8110456467745744 -3.2575978015068023 3.7493219348430724 -3.255941121999576 3.695917483311092 -3.23042457101817 C 3.694898973224678 -3.229934177272859 3.6086273966458258 -3.369055110557865 3.433179603612051 -3.2960618876981886 C 3.326726438283883 -3.2517755602370726 3.285118415124077 -3.121708049942414 3.334799073783609 -3.0176691307450048 C 3.337062429531196 -3.012916083675073 3.339665288640921 -3.008464817371485 3.3422304251548525 -3.0039758284721048 C 3.2880607775959403 -2.9313598315703593 3.1512409226543143 -2.859724622159235 2.737650382378609 -2.7823555781875577 C 2.4597102965749427 -2.7303361185888533 3.1063133110647154 -2.716378758145401 3.363355078798996 -2.696423504970843" fill="#edc165" transform="matrix(1,0,0,1,0,0)" fill-rule="nonzero"></path></g><g clip-path="url(#a13e484c2-f821-4ea1-895d-a1fb0ce86a581fb956b1-7dd8-44eb-ae5f-c1aeaf505212)"><path d=" M 3.363355078798996 -2.696423504970843 C 3.3857623007001063 -2.69468826556436 3.40579299906625 -2.6835978224011843 3.4211838181498404 -2.66718849323118 C 3.4833503554462535 -2.6009715469572012 3.5812165338825395 -2.5825882663623885 3.663174270162669 -2.621732765300477 C 3.7434032102986796 -2.6601143049679803 3.790475301869802 -2.7451409208239266 3.7804160978876684 -2.8335074180830206 C 3.821386658989222 -2.8323171835196645 3.861795126163888 -2.8432625104516784 3.8965639703346673 -2.8649680629744783 C 3.9787992291636565 -2.9161576254657344 4.015427869678771 -3.0206492158126608 3.982760101721934 -3.1118247298446184 C 3.9629692148953612 -3.1676051082588614 3.9204382803775015 -3.2123676016057496 3.8657419635760384 -3.2349827015562758 C 3.8110456467745744 -3.2575978015068023 3.7493219348430724 -3.255941121999576 3.695917483311092 -3.23042457101817 C 3.694898973224678 -3.229934177272859 3.6086273966458258 -3.369055110557865 3.433179603612051 -3.2960618876981886 C 3.326726438283883 -3.2517755602370726 3.285118415124077 -3.121708049942414 3.334799073783609 -3.0176691307450048 C 3.337062429531196 -3.012916083675073 3.339665288640921 -3.008464817371485 3.3422304251548525 -3.0039758284721048 C 3.2880607775959403 -2.9313598315703593 3.1512409226543143 -2.859724622159235 2.737650382378609 -2.7823555781875577 C 2.4597102965749427 -2.7303361185888533 3.1063133110647154 -2.716378758145401 3.363355078798996 -2.696423504970843 Z" fill="none" transform="matrix(1,0,0,1,0,0)" fill-rule="nonzero" stroke-dasharray="none" stroke-miterlimit="10" stroke-linejoin="round" stroke-linecap="round" stroke-width="0.06650493638326055" stroke="#d4671d"></path></g><g clip-path="url(#a13e484c2-f821-4ea1-895d-a1fb0ce86a581fb956b1-7dd8-44eb-ae5f-c1aeaf505212)"><path d=" M 3.39756947318335 -2.948297277081468 C 3.39756947318335 -2.948297277081468 3.342305870346438 -2.9847750272134097 3.3297442459473308 -3.029174522461905" fill="#ffffff" transform="matrix(1,0,0,1,0,0)" fill-rule="nonzero" stroke-dasharray="none" stroke-miterlimit="10" stroke-linejoin="round" stroke-linecap="round" stroke-width="0.06650493638326055" stroke="#d4671d"></path></g><g clip-path="url(#a13e484c2-f821-4ea1-895d-a1fb0ce86a581fb956b1-7dd8-44eb-ae5f-c1aeaf505212)"><path d=" M 0.3523752051884035 -2.0945217664959115 L 0.5486081485041843 -2.0945217664959115 L 0.5486081485041843 -2.25439012746713 L 0.3523752051884035 -2.25439012746713 C 0.3444284397528647 -2.254400154943381 0.3368042696709012 -2.251247754327842 0.33118505346942995 -2.2456285381263705 C 0.32556583726795874 -2.2400093219248998 0.3224134366524192 -2.232385151842936 0.3224234641286707 -2.224438386407397 L 0.3224234641286707 -2.124473507555644 C 0.3224234641286707 -2.107913288002467 0.33581498563522627 -2.0945217664959115 0.3523752051884035 -2.0945217664959115" fill="#e39514" transform="matrix(1,0,0,1,0,0)" fill-rule="nonzero"></path></g><g clip-path="url(#a13e484c2-f821-4ea1-895d-a1fb0ce86a581fb956b1-7dd8-44eb-ae5f-c1aeaf505212)"><path d=" M 0.3523752051884035 -2.0945217664959115 L 0.5486081485041843 -2.0945217664959115 L 0.5486081485041843 -2.25439012746713 L 0.3523752051884035 -2.25439012746713 C 0.3444284397528647 -2.254400154943381 0.3368042696709012 -2.251247754327842 0.33118505346942995 -2.2456285381263705 C 0.32556583726795874 -2.2400093219248998 0.3224134366524192 -2.232385151842936 0.3224234641286707 -2.224438386407397 L 0.3224234641286707 -2.124473507555644 C 0.3224234641286707 -2.107913288002467 0.33581498563522627 -2.0945217664959115 0.3523752051884035 -2.0945217664959115 Z" fill="none" transform="matrix(1,0,0,1,0,0)" fill-rule="nonzero" stroke-dasharray="none" stroke-miterlimit="10" stroke-linejoin="round" stroke-linecap="butt" stroke-width="0.06650493638326055" stroke="#d4671d"></path></g><g clip-path="url(#a13e484c2-f821-4ea1-895d-a1fb0ce86a581fb956b1-7dd8-44eb-ae5f-c1aeaf505212)"><path d=" M 3.346002684734164 -2.0945217664959115 L 3.147581830862382 -2.0945217664959115 L 3.147581830862382 -2.25439012746713 L 3.346002684734164 -2.25439012746713 C 3.3539494501697025 -2.254400154943381 3.361573620251666 -2.251247754327842 3.367192836453137 -2.2456285381263705 C 3.3728120526546084 -2.2400093219248998 3.3759644532701483 -2.232385151842936 3.3759544257938963 -2.224438386407397 L 3.3759544257938963 -2.124473507555644 C 3.3759644532701483 -2.1165267421201057 3.3728120526546084 -2.1089025720381422 3.367192836453137 -2.103283355836671 C 3.361573620251667 -2.0976641396351994 3.3539494501697034 -2.09451173901966 3.346002684734165 -2.0945217664959115" fill="#e39514" transform="matrix(1,0,0,1,0,0)" fill-rule="nonzero"></path></g><g clip-path="url(#a13e484c2-f821-4ea1-895d-a1fb0ce86a581fb956b1-7dd8-44eb-ae5f-c1aeaf505212)"><path d=" M 3.346002684734164 -2.0945217664959115 L 3.147581830862382 -2.0945217664959115 L 3.147581830862382 -2.25439012746713 L 3.346002684734164 -2.25439012746713 C 3.3539494501697025 -2.254400154943381 3.361573620251666 -2.251247754327842 3.367192836453137 -2.2456285381263705 C 3.3728120526546084 -2.2400093219248998 3.3759644532701483 -2.232385151842936 3.3759544257938963 -2.224438386407397 L 3.3759544257938963 -2.124473507555644 C 3.3759644532701483 -2.1165267421201057 3.3728120526546084 -2.1089025720381422 3.367192836453137 -2.103283355836671 C 3.361573620251667 -2.0976641396351994 3.3539494501697034 -2.09451173901966 3.346002684734165 -2.0945217664959115 Z" fill="none" transform="matrix(1,0,0,1,0,0)" fill-rule="nonzero" stroke-dasharray="none" stroke-miterlimit="10" stroke-linejoin="round" stroke-linecap="butt" stroke-width="0.06650493638326055" stroke="#d4671d"></path></g><g clip-path="url(#a13e484c2-f821-4ea1-895d-a1fb0ce86a581fb956b1-7dd8-44eb-ae5f-c1aeaf505212)"><path d=" M 0.5520409047213576 -2.4426258804747705 L 0.5520409047213576 -1.0966836625764511 C 0.5520409047213576 -0.8296831295527878 0.7287712660120982 -0.5966329327429278 0.9684983622773398 -0.5966329327429278 C 1.673986348800164 -0.5966329327429278 2.2143625335365265 -0.6081383244598277 2.7288610175588124 -0.6081383244598277 C 2.9691539527609514 -0.6081383244598277 3.1463369852012093 -0.8405472371412048 3.1463369852012093 -1.108113609101765 L 3.1463369852012093 -2.4426258804747705 Z" fill="#ffffff" transform="matrix(1,0,0,1,0,0)" fill-rule="nonzero"></path></g><g clip-path="url(#a13e484c2-f821-4ea1-895d-a1fb0ce86a581fb956b1-7dd8-44eb-ae5f-c1aeaf505212)"><path d=" M 0.5520409047213576 -2.4426258804747705 L 0.5520409047213576 -1.0966836625764511 C 0.5520409047213576 -0.8296831295527878 0.7287712660120982 -0.5966329327429278 0.9684983622773398 -0.5966329327429278 C 1.673986348800164 -0.5966329327429278 2.2143625335365265 -0.6081383244598277 2.7288610175588124 -0.6081383244598277 C 2.9691539527609514 -0.6081383244598277 3.1463369852012093 -0.8405472371412048 3.1463369852012093 -1.108113609101765 L 3.1463369852012093 -2.4426258804747705 Z" fill="none" transform="matrix(1,0,0,1,0,0)" fill-rule="nonzero" stroke-dasharray="none" stroke-miterlimit="10" stroke-linejoin="round" stroke-linecap="round" stroke-width="0.06650493638326055" stroke="#d4671d"></path></g><g clip-path="url(#SvgjsClipPath987291fb956b1-7dd8-44eb-ae5f-c1aeaf505212)"><path d=" M 3.146344128086887 -2.152836226033683 L 0.5520480476070349 -2.152836226033683" fill="none" transform="matrix(1,0,0,1,0,0)" fill-rule="nonzero" stroke-dasharray="none" stroke-miterlimit="10" stroke-linejoin="round" stroke-linecap="round" stroke-width="0.06650493638326055" stroke="#d4671d"></path></g><g clip-path="url(#b13e484c2-f821-4ea1-895d-a1fb0ce86a581fb956b1-7dd8-44eb-ae5f-c1aeaf505212)"><path d=" M 1.5445224000381954 -0.2854592400455278 C 1.475716385311555 -0.32152204162374476 1.4426336688009938 -0.37414506275513926 1.431845006404163 -0.439706934243572 C 1.4180762589396763 -0.5232247613295273 1.483713575619695 -0.6071575369692068 1.483713575619695 -0.6071575369692068 C 1.5800948078711023 -0.7051231182439244 1.4800544838277632 -0.8769118194857675 1.4800544838277632 -0.8769118194857675 C 1.7028441345818963 -0.8217613844362339 1.7104640989321054 -0.7199480983906184 1.7104640989321054 -0.7199480983906184 C 1.9461171548516907 -0.8219499974151998 1.8223115954586895 -1.139762866972188 1.8223115954586895 -1.139762866972188 C 2.1259030464016737 -1.0361766189242956 2.008019934548191 -0.7543888283497315 2.008019934548191 -0.7543888283497315 C 1.9418545015270687 -0.6340914703654903 2.052155371626135 -0.5997261855979632 2.052155371626135 -0.5997261855979632 C 2.141859704422161 -0.6084778278219654 2.122017619034983 -0.7727974550967716 2.122017619034983 -0.7727974550967716 C 2.262270230193782 -0.721494724818136 2.2674759484132316 -0.5350696564085653 2.2674759484132316 -0.5350696564085653 C 2.275850364679303 -0.43699090734646795 2.233978283348946 -0.3447591606323037 2.0858793722651794 -0.2832713294895268 Z" fill="#edc165" transform="matrix(1,0,0,1,0,0)" fill-rule="nonzero"></path></g><g clip-path="url(#b13e484c2-f821-4ea1-895d-a1fb0ce86a581fb956b1-7dd8-44eb-ae5f-c1aeaf505212)"><path d=" M 1.5445224000381954 -0.2854592400455278 C 1.475716385311555 -0.32152204162374476 1.4426336688009938 -0.37414506275513926 1.431845006404163 -0.439706934243572 C 1.4180762589396763 -0.5232247613295273 1.483713575619695 -0.6071575369692068 1.483713575619695 -0.6071575369692068 C 1.5800948078711023 -0.7051231182439244 1.4800544838277632 -0.8769118194857675 1.4800544838277632 -0.8769118194857675 C 1.7028441345818963 -0.8217613844362339 1.7104640989321054 -0.7199480983906184 1.7104640989321054 -0.7199480983906184 C 1.9461171548516907 -0.8219499974151998 1.8223115954586895 -1.139762866972188 1.8223115954586895 -1.139762866972188 C 2.1259030464016737 -1.0361766189242956 2.008019934548191 -0.7543888283497315 2.008019934548191 -0.7543888283497315 C 1.9418545015270687 -0.6340914703654903 2.052155371626135 -0.5997261855979632 2.052155371626135 -0.5997261855979632 C 2.141859704422161 -0.6084778278219654 2.122017619034983 -0.7727974550967716 2.122017619034983 -0.7727974550967716 C 2.262270230193782 -0.721494724818136 2.2674759484132316 -0.5350696564085653 2.2674759484132316 -0.5350696564085653 C 2.275850364679303 -0.43699090734646795 2.233978283348946 -0.3447591606323037 2.0858793722651794 -0.2832713294895268 Z" fill="none" transform="matrix(1,0,0,1,0,0)" fill-rule="nonzero" stroke-dasharray="none" stroke-miterlimit="10" stroke-linejoin="round" stroke-linecap="round" stroke-width="0.06650493638326055" stroke="#d4671d"></path></g></g><g><path d=" M 0.09 1.125 L 0.09 1.101 L 0.2115 1.041 L 0.2115 0.21899999999999997 L 0.09 0.15900000000000003 L 0.09 0.135 L 0.51 0.135 Q 0.687 0.135 0.79425 0.1995 Q 0.9015 0.264 0.9015 0.40349999999999997 Q 0.9015 0.486 0.8452500000000001 0.54975 Q 0.789 0.6134999999999999 0.6930000000000001 0.65025 Q 0.597 0.687 0.47400000000000003 0.687 L 0.369 0.687 L 0.369 1.041 L 0.507 1.101 L 0.507 1.125 L 0.09 1.125 M 0.369 0.21750000000000003 L 0.369 0.6075 L 0.483 0.6075 Q 0.6015 0.6075 0.669 0.5535 Q 0.7365 0.49949999999999994 0.7365 0.4155 Q 0.7365 0.3105 0.66825 0.264 Q 0.6 0.21750000000000003 0.47250000000000003 0.21750000000000003 L 0.369 0.21750000000000003 M 1.02902197265625 1.125 L 1.02902197265625 1.101 L 1.12502197265625 1.053 L 1.12502197265625 0.606 L 1.03352197265625 0.5295 L 1.03352197265625 0.5175 L 1.24052197265625 0.4335 L 1.25252197265625 0.4335 L 1.26602197265625 0.5625 L 1.2720219726562498 0.5625 Q 1.30652197265625 0.5055 1.33502197265625 0.47775 Q 1.36352197265625 0.44999999999999996 1.3890219726562498 0.44175 Q 1.41452197265625 0.4335 1.44152197265625 0.4335 Q 1.4550219726562499 0.4335 1.4707719726562498 0.43725 Q 1.48652197265625 0.44099999999999995 1.49702197265625 0.4455 Q 1.51502197265625 0.45299999999999996 1.52852197265625 0.4635 Q 1.5420219726562499 0.474 1.5420219726562499 0.48749999999999993 Q 1.5420219726562499 0.501 1.53602197265625 0.5145 L 1.50452197265625 0.594 L 1.4940219726562498 0.594 L 1.44152197265625 0.573 Q 1.42352197265625 0.567 1.40702197265625 0.56475 Q 1.3905219726562499 0.5625 1.37402197265625 0.5625 Q 1.30952197265625 0.5625 1.2675219726562499 0.624 L 1.2675219726562499 1.053 L 1.3770219726562498 1.101 L 1.3770219726562498 1.125 L 1.02902197265625 1.125 M 1.951509521484375 1.14 Q 1.804509521484375 1.14 1.7190095214843748 1.0515 Q 1.633509521484375 0.963 1.633509521484375 0.8160000000000001 Q 1.633509521484375 0.7050000000000001 1.6792595214843749 0.618 Q 1.7250095214843748 0.531 1.800759521484375 0.48224999999999996 Q 1.8765095214843748 0.4335 1.965009521484375 0.4335 Q 2.085009521484375 0.4335 2.152509521484375 0.51525 Q 2.220009521484375 0.597 2.221509521484375 0.75 L 2.2140095214843747 0.7575000000000001 L 1.7715095214843748 0.7575000000000001 Q 1.7730095214843749 0.8265 1.797759521484375 0.885 Q 1.822509521484375 0.9435 1.8772595214843748 0.9795 Q 1.9320095214843749 1.0155 2.025009521484375 1.0155 Q 2.1105095214843748 1.0155 2.218509521484375 0.9585 L 2.223009521484375 0.9585 L 2.223009521484375 0.9765 Q 2.187009521484375 1.0455 2.116509521484375 1.09275 Q 2.046009521484375 1.14 1.951509521484375 1.14 M 1.9380095214843749 0.49949999999999994 Q 1.8720095214843748 0.49949999999999994 1.8292595214843748 0.5489999999999999 Q 1.786509521484375 0.5985 1.774509521484375 0.6885 L 2.094009521484375 0.6885 Q 2.079009521484375 0.5865 2.0400095214843748 0.543 Q 2.001009521484375 0.49949999999999994 1.9380095214843749 0.49949999999999994 M 2.3580087890624997 1.47 L 2.3580087890624997 1.446 L 2.4540087890624998 1.3980000000000001 L 2.4540087890624998 0.606 L 2.3625087890625 0.5295 L 2.3625087890625 0.5175 L 2.5695087890624997 0.4335 L 2.5800087890625 0.4335 L 2.5920087890624997 0.525 L 2.6025087890625 0.525 Q 2.6580087890625 0.477 2.7105087890624997 0.45524999999999993 Q 2.7630087890625 0.4335 2.8245087890624996 0.4335 Q 2.8980087890624997 0.4335 2.9565087890624997 0.47250000000000003 Q 3.0150087890624997 0.5115 3.0495087890625 0.58275 Q 3.0840087890624996 0.6539999999999999 3.0840087890624996 0.7545 Q 3.0840087890624996 0.876 3.0375087890624997 0.96225 Q 2.9910087890624997 1.0485 2.9130087890625 1.09425 Q 2.8350087890625 1.14 2.7405087890625 1.14 Q 2.6595087890625 1.14 2.5950087890624998 1.125 L 2.5950087890624998 1.3980000000000001 L 2.7045087890625 1.446 L 2.7045087890625 1.47 L 2.3580087890624997 1.47 M 2.7330087890624997 0.5415 Q 2.6610087890624996 0.5415 2.5950087890624998 0.582 L 2.5950087890624998 1.008 Q 2.6340087890625 1.041 2.6767587890624998 1.05375 Q 2.7195087890625 1.0665 2.7720087890625 1.0665 Q 2.8170087890624997 1.0665 2.8560087890625 1.041 Q 2.8950087890624996 1.0155 2.9182587890624996 0.95775 Q 2.9415087890624996 0.9 2.9415087890624996 0.8025 Q 2.9415087890624996 0.711 2.9130087890625 0.6539999999999999 Q 2.8845087890625 0.597 2.8372587890625 0.56925 Q 2.7900087890625 0.5415 2.7330087890624997 0.5415 M 3.210041015625 1.125 L 3.210041015625 1.101 L 3.304541015625 1.053 L 3.304541015625 0.17099999999999993 L 3.2145410156249996 0.09450000000000003 L 3.2145410156249996 0.08250000000000002 L 3.435041015625 0 L 3.4470410156249995 0 L 3.4470410156249995 1.053 L 3.540041015625 1.101 L 3.540041015625 1.125 L 3.210041015625 1.125 M 3.7230791015624995 1.4865 Q 3.6885791015624996 1.4865 3.6803291015624997 1.47675 Q 3.6720791015625 1.467 3.6720791015625 1.443 L 3.6720791015625 1.362 L 3.6780791015624996 1.3545 L 3.7470791015624996 1.3545 Q 3.7845791015624997 1.3545 3.8055791015624996 1.3485 Q 3.8265791015625 1.3425 3.8445791015624997 1.31625 Q 3.8625791015625 1.29 3.8895791015624996 1.2285 L 3.9390791015624997 1.116 L 3.6585791015624998 0.5175 L 3.5595791015624996 0.47250000000000003 L 3.5595791015624996 0.4485 L 3.9315791015625 0.4485 L 3.9315791015625 0.47250000000000003 L 3.8145791015625 0.5175 L 3.8145791015625 0.525 L 4.0065791015625 0.9390000000000001 L 4.012579101562499 0.9390000000000001 L 4.1700791015625 0.5325 L 4.1700791015625 0.525 L 4.0635791015625 0.47250000000000003 L 4.0635791015625 0.4485 L 4.3560791015625 0.4485 L 4.3560791015625 0.47250000000000003 L 4.245079101562499 0.522 L 3.9480791015624996 1.2435 Q 3.9345791015624996 1.278 3.9248291015624996 1.30125 Q 3.9150791015624997 1.3245 3.9030791015624997 1.34625 Q 3.8910791015624997 1.3679999999999999 3.8685791015624997 1.3995 Q 3.8385791015625 1.443 3.7995791015625 1.46475 Q 3.7605791015624996 1.4865 3.7230791015624995 1.4865" fill="#000000" fill-rule="nonzero"></path></g><g><path d=" M 0.47178532527043243 2.2617865384615383 L 0.47178532527043243 1.8521711538461536 L 0.7406314791165862 1.8521711538461536 L 0.7406314791165862 1.8879403846153844 L 0.5121699406550478 1.8879403846153844 L 0.5121699406550478 2.0385173076923073 L 0.7048622483473554 2.0385173076923073 L 0.7048622483473554 2.071978846153846 L 0.5121699406550478 2.071978846153846 L 0.5121699406550478 2.2617865384615383 L 0.47178532527043243 2.2617865384615383 M 0.9139791165865381 2.267555769230769 Q 0.8816714242788458 2.267555769230769 0.8542675781249996 2.255151923076923 Q 0.8268637319711535 2.242748076923077 0.8069598858173074 2.2211134615384616 Q 0.7870560396634612 2.199478846153846 0.7760945012019227 2.171498076923077 Q 0.7651329627403842 2.1435173076923077 0.7651329627403842 2.1123634615384614 Q 0.7651329627403842 2.080055769230769 0.7760945012019227 2.052075 Q 0.7870560396634612 2.0240942307692307 0.8072483473557689 2.0024596153846153 Q 0.8274406550480766 1.9808249999999998 0.8548445012019228 1.9684211538461538 Q 0.882248347355769 1.9560173076923075 0.9145560396634612 1.9560173076923075 Q 0.9468637319711535 1.9560173076923075 0.9739791165865381 1.9684211538461538 Q 1.0010945012019228 1.9808249999999998 1.0212868088942304 2.0024596153846153 Q 1.041479116586538 2.0240942307692307 1.0524406550480765 2.052075 Q 1.063402193509615 2.080055769230769 1.063402193509615 2.1123634615384614 Q 1.063402193509615 2.1435173076923077 1.0524406550480765 2.171498076923077 Q 1.041479116586538 2.199478846153846 1.021575270432692 2.2211134615384616 Q 1.0016714242788458 2.242748076923077 0.9742675781249996 2.255151923076923 Q 0.9468637319711535 2.267555769230769 0.9139791165865381 2.267555769230769 M 0.8049406550480765 2.1129403846153845 Q 0.8049406550480765 2.146401923076923 0.819652193509615 2.173805769230769 Q 0.8343637319711535 2.2012096153846152 0.8591714242788459 2.217075 Q 0.8839791165865382 2.2329403846153846 0.9139791165865381 2.2329403846153846 Q 0.9439791165865381 2.2329403846153846 0.9687868088942304 2.2167865384615384 Q 0.9935945012019227 2.200632692307692 1.0085945012019226 2.172651923076923 Q 1.0235945012019227 2.144671153846154 1.0235945012019227 2.1117865384615384 Q 1.0235945012019227 2.078325 1.0085945012019226 2.0506326923076923 Q 0.9935945012019227 2.0229403846153846 0.9687868088942304 2.0067865384615384 Q 0.9439791165865381 1.9906326923076922 0.9139791165865381 1.9906326923076922 Q 0.8839791165865382 1.9906326923076922 0.8594598858173074 2.0073634615384615 Q 0.8349406550480766 2.0240942307692307 0.8199406550480766 2.051498076923077 Q 0.8049406550480765 2.078901923076923 0.8049406550480765 2.1129403846153845 M 1.2586737530048073 2.267555769230769 Q 1.226366060697115 2.267555769230769 1.198962214543269 2.255151923076923 Q 1.1715583683894228 2.242748076923077 1.1516545222355765 2.2211134615384616 Q 1.1317506760817304 2.199478846153846 1.120789137620192 2.171498076923077 Q 1.1098275991586535 2.1435173076923077 1.1098275991586535 2.1123634615384614 Q 1.1098275991586535 2.080055769230769 1.120789137620192 2.052075 Q 1.1317506760817304 2.0240942307692307 1.151942983774038 2.0024596153846153 Q 1.1721352914663459 1.9808249999999998 1.199539137620192 1.9684211538461538 Q 1.2269429837740382 1.9560173076923075 1.2592506760817304 1.9560173076923075 Q 1.2915583683894227 1.9560173076923075 1.3186737530048074 1.9684211538461538 Q 1.345789137620192 1.9808249999999998 1.3659814453124997 2.0024596153846153 Q 1.3861737530048073 2.0240942307692307 1.3971352914663457 2.052075 Q 1.4080968299278842 2.080055769230769 1.4080968299278842 2.1123634615384614 Q 1.4080968299278842 2.1435173076923077 1.3971352914663457 2.171498076923077 Q 1.3861737530048073 2.199478846153846 1.3662699068509612 2.2211134615384616 Q 1.346366060697115 2.242748076923077 1.318962214543269 2.255151923076923 Q 1.2915583683894227 2.267555769230769 1.2586737530048073 2.267555769230769 M 1.149635291466346 2.1129403846153845 Q 1.149635291466346 2.146401923076923 1.1643468299278843 2.173805769230769 Q 1.1790583683894227 2.2012096153846152 1.203866060697115 2.217075 Q 1.2286737530048073 2.2329403846153846 1.2586737530048073 2.2329403846153846 Q 1.2886737530048074 2.2329403846153846 1.3134814453124997 2.2167865384615384 Q 1.338289137620192 2.200632692307692 1.3532891376201919 2.172651923076923 Q 1.368289137620192 2.144671153846154 1.368289137620192 2.1117865384615384 Q 1.368289137620192 2.078325 1.3532891376201919 2.0506326923076923 Q 1.338289137620192 2.0229403846153846 1.3134814453124997 2.0067865384615384 Q 1.2886737530048074 1.9906326923076922 1.2586737530048073 1.9906326923076922 Q 1.2286737530048073 1.9906326923076922 1.2041545222355765 2.0073634615384615 Q 1.179635291466346 2.0240942307692307 1.1646352914663458 2.051498076923077 Q 1.149635291466346 2.078901923076923 1.149635291466346 2.1129403846153845 M 1.4550991586538458 2.1123634615384614 Q 1.4550991586538458 2.0696711538461536 1.4726953124999997 2.0341903846153846 Q 1.4902914663461535 1.9987096153846151 1.5214453124999996 1.9773634615384614 Q 1.552599158653846 1.9560173076923075 1.5924068509615381 1.9560173076923075 Q 1.6299068509615382 1.9560173076923075 1.6596183894230767 1.9759211538461536 Q 1.6893299278846152 1.995825 1.7060606971153844 2.0240942307692307 L 1.7060606971153844 1.840632692307692 L 1.7452914663461536 1.840632692307692 L 1.7452914663461536 2.214478846153846 Q 1.7452914663461536 2.222555769230769 1.748753004807692 2.2263057692307693 Q 1.7522145432692304 2.230055769230769 1.7591376201923075 2.230632692307692 L 1.7591376201923075 2.2617865384615383 Q 1.7475991586538457 2.2635173076923074 1.741253004807692 2.2629403846153844 Q 1.7291376201923074 2.2623634615384614 1.719906850961538 2.253132692307692 Q 1.710676081730769 2.243901923076923 1.710676081730769 2.2329403846153846 L 1.710676081730769 2.2035173076923074 Q 1.6927914663461536 2.2329403846153846 1.6622145432692306 2.250248076923077 Q 1.6316376201923073 2.267555769230769 1.598753004807692 2.267555769230769 Q 1.5675991586538458 2.267555769230769 1.541349158653846 2.2548634615384615 Q 1.5150991586538458 2.2421711538461535 1.4957722355769227 2.2202480769230766 Q 1.4764453124999997 2.1983249999999996 1.4657722355769227 2.1703442307692304 Q 1.4550991586538458 2.1423634615384612 1.4550991586538458 2.1123634615384614 M 1.7060606971153844 2.1585173076923074 L 1.7060606971153844 2.065632692307692 Q 1.6985606971153844 2.0448634615384615 1.6818299278846152 2.0278442307692304 Q 1.665099158653846 2.0108249999999996 1.6440414663461536 2.000728846153846 Q 1.6229837740384612 1.9906326923076922 1.6022145432692305 1.9906326923076922 Q 1.5779837740384612 1.9906326923076922 1.5583683894230766 2.000728846153846 Q 1.538753004807692 2.0108249999999996 1.5246183894230767 2.0281326923076923 Q 1.5104837740384611 2.0454403846153846 1.5029837740384613 2.0673634615384615 Q 1.4954837740384612 2.0892865384615384 1.4954837740384612 2.1123634615384614 Q 1.4954837740384612 2.1365942307692305 1.5038491586538458 2.1585173076923074 Q 1.5122145432692304 2.1804403846153844 1.5277914663461536 2.197459615384615 Q 1.5433683894230765 2.214478846153846 1.5635606971153844 2.223709615384615 Q 1.583753004807692 2.2329403846153846 1.6074068509615382 2.2329403846153846 Q 1.6224068509615381 2.2329403846153846 1.6385606971153843 2.227171153846154 Q 1.6547145432692305 2.221401923076923 1.669426081730769 2.211305769230769 Q 1.6841376201923075 2.2012096153846152 1.6939453124999997 2.187363461538461 Q 1.703753004807692 2.1735173076923076 1.7060606971153844 2.1585173076923074 M 2.266265963040865 1.8879403846153844 L 2.1203044245793268 1.8879403846153844 L 2.1203044245793268 2.2617865384615383 L 2.079919809194711 2.2617865384615383 L 2.079919809194711 1.8879403846153844 L 1.9339582707331728 1.8879403846153844 L 1.9339582707331728 1.8521711538461536 L 2.266265963040865 1.8521711538461536 L 2.266265963040865 1.8879403846153844 M 2.418838172325721 1.995825 Q 2.3796074030949517 1.996978846153846 2.3498958646334134 2.017748076923077 Q 2.3201843261718746 2.0385173076923073 2.30806894155649 2.0748634615384614 L 2.30806894155649 2.2617865384615383 L 2.268838172325721 2.2617865384615383 L 2.268838172325721 1.9612096153846152 L 2.305761249248798 1.9612096153846152 L 2.305761249248798 2.0333249999999996 Q 2.3213381723257207 2.0015942307692307 2.347011249248798 1.981978846153846 Q 2.372684326171875 1.9623634615384613 2.4015304800180286 1.960055769230769 Q 2.4072997107872594 1.959478846153846 2.4116266338641825 1.959478846153846 Q 2.4159535569411057 1.959478846153846 2.418838172325721 1.960055769230769 L 2.418838172325721 1.995825 M 2.4473953012319707 2.1752480769230766 Q 2.4473953012319707 2.146978846153846 2.463549147385817 2.1264980769230766 Q 2.479702993539663 2.1060173076923077 2.5082606858473557 2.0947673076923077 Q 2.536818378155048 2.0835173076923077 2.5743183781550476 2.0835173076923077 Q 2.5962414550781245 2.0835173076923077 2.619895301231971 2.086978846153846 Q 2.643549147385817 2.0904403846153845 2.6620106858473553 2.0973634615384613 L 2.6620106858473553 2.071978846153846 Q 2.6620106858473553 2.033901923076923 2.6395106858473554 2.0114019230769227 Q 2.6170106858473554 1.988901923076923 2.577202993539663 1.988901923076923 Q 2.552972224308894 1.988901923076923 2.529606839693509 1.9978442307692306 Q 2.5062414550781247 2.0067865384615384 2.4808568396935096 2.0240942307692307 L 2.4658568396935094 1.996401923076923 Q 2.495279916616586 1.9762096153846151 2.523549147385817 1.9661134615384614 Q 2.5518183781550476 1.9560173076923075 2.581241455078125 1.9560173076923075 Q 2.6366260704627402 1.9560173076923075 2.6689337627704326 1.9877480769230766 Q 2.701241455078125 2.019478846153846 2.701241455078125 2.0754403846153844 L 2.701241455078125 2.214478846153846 Q 2.701241455078125 2.222555769230769 2.704702993539663 2.2263057692307693 Q 2.7081645320012018 2.230055769230769 2.7156645320012016 2.230632692307692 L 2.7156645320012016 2.2617865384615383 Q 2.709318378155048 2.2623634615384614 2.704702993539663 2.2629403846153844 Q 2.7000876089242785 2.2635173076923074 2.6977799166165863 2.2629403846153844 Q 2.6833568396935092 2.2623634615384614 2.6758568396935094 2.2537096153846155 Q 2.6683568396935096 2.245055769230769 2.667779916616586 2.2352480769230767 L 2.667202993539663 2.2133249999999998 Q 2.6470106858473557 2.2392865384615384 2.6147029935396633 2.2534211538461535 Q 2.582395301231971 2.267555769230769 2.5489337627704325 2.267555769230769 Q 2.5200876089242787 2.267555769230769 2.496722224308894 2.255151923076923 Q 2.4733568396935093 2.242748076923077 2.46037607046274 2.2216903846153846 Q 2.4473953012319707 2.200632692307692 2.4473953012319707 2.1752480769230766 M 2.6487414550781248 2.1983249999999996 Q 2.6550876089242785 2.1902480769230768 2.658549147385817 2.182748076923077 Q 2.6620106858473553 2.1752480769230766 2.6620106858473553 2.169478846153846 L 2.6620106858473553 2.125632692307692 Q 2.642395301231971 2.118132692307692 2.6213376089242786 2.1140942307692305 Q 2.600279916616586 2.110055769230769 2.5789337627704323 2.110055769230769 Q 2.536818378155048 2.110055769230769 2.5108568396935094 2.1267865384615385 Q 2.4848953012319708 2.1435173076923077 2.4848953012319708 2.1723634615384615 Q 2.4848953012319708 2.1890942307692307 2.493549147385817 2.203805769230769 Q 2.502202993539663 2.2185173076923075 2.5189337627704322 2.2280365384615384 Q 2.5356645320012015 2.2375557692307693 2.558164532001202 2.2375557692307693 Q 2.5864337627704326 2.2375557692307693 2.610952993539663 2.226594230769231 Q 2.635472224308894 2.2156326923076923 2.6487414550781248 2.1983249999999996 M 2.9178662109374995 2.267555769230769 Q 2.8849815955528846 2.267555769230769 2.8575777493990384 2.255151923076923 Q 2.8301739032451922 2.242748076923077 2.809693134014423 2.220825 Q 2.7892123647836535 2.198901923076923 2.7779623647836535 2.170632692307692 Q 2.7667123647836536 2.1423634615384612 2.7667123647836536 2.1106326923076923 Q 2.7667123647836536 2.0679403846153845 2.7857508263221153 2.0327480769230766 Q 2.8047892878605767 1.997555769230769 2.838827749399038 1.9767865384615382 Q 2.8728662109374996 1.9560173076923075 2.9172892878605765 1.9560173076923075 Q 2.9594046724759613 1.9560173076923075 2.9917123647836537 1.9753442307692306 Q 3.024020057091346 1.9946711538461537 3.039596980168269 2.0275557692307693 L 3.001520057091346 2.039671153846154 Q 2.988827749399038 2.016594230769231 2.9660392878605766 2.0036134615384613 Q 2.943250826322115 1.9906326923076922 2.9155585186298074 1.9906326923076922 Q 2.8855585186298076 1.9906326923076922 2.860750826322115 2.0062096153846154 Q 2.835943134014423 2.021786538461538 2.8212315955528844 2.0489019230769228 Q 2.8065200570913458 2.0760173076923074 2.8065200570913458 2.1106326923076923 Q 2.8065200570913458 2.144671153846154 2.821520057091346 2.1723634615384615 Q 2.836520057091346 2.200055769230769 2.861327749399038 2.216498076923077 Q 2.8861354417067306 2.2329403846153846 2.9161354417067304 2.2329403846153846 Q 2.9357508263221153 2.2329403846153846 2.953923903245192 2.2260173076923078 Q 2.972096980168269 2.2190942307692305 2.9856546724759614 2.2072673076923075 Q 2.9992123647836535 2.1954403846153845 3.003827749399038 2.1815942307692304 L 3.0424815955528843 2.1931326923076924 Q 3.0344046724759615 2.214478846153846 3.015654672475961 2.231498076923077 Q 2.9969046724759614 2.2485173076923077 2.9718085186298073 2.258036538461538 Q 2.9467123647836537 2.267555769230769 2.9178662109374995 2.267555769230769 M 3.3202765362079325 2.2617865384615383 L 3.2089303823617787 2.1077480769230768 L 3.144891920823317 2.167748076923077 L 3.144891920823317 2.2617865384615383 L 3.105661151592548 2.2617865384615383 L 3.105661151592548 1.840632692307692 L 3.144891920823317 1.840632692307692 L 3.144891920823317 2.125632692307692 L 3.315084228515625 1.9617865384615383 L 3.3583534592848556 1.9617865384615383 L 3.23546884390024 2.0846711538461538 L 3.3629688439002403 2.2617865384615383 L 3.3202765362079325 2.2617865384615383 M 3.5271333195612975 2.267555769230769 Q 3.4948256272536056 2.267555769230769 3.467133319561298 2.255151923076923 Q 3.4394410118689898 2.242748076923077 3.4192487041766824 2.2211134615384616 Q 3.3990563964843745 2.199478846153846 3.3878063964843745 2.1712096153846154 Q 3.3765563964843746 2.1429403846153843 3.3765563964843746 2.1106326923076923 Q 3.3765563964843746 2.0685173076923076 3.395883319561298 2.0333249999999996 Q 3.4152102426382207 1.998132692307692 3.449248704176682 1.977075 Q 3.4832871657151436 1.9560173076923075 3.5265563964843745 1.9560173076923075 Q 3.5709794734074514 1.9560173076923075 3.6041525503305283 1.9773634615384614 Q 3.637325627253605 1.9987096153846151 3.656364088792067 2.0336134615384616 Q 3.6754025503305283 2.0685173076923076 3.6754025503305283 2.110055769230769 Q 3.6754025503305283 2.1146711538461536 3.6754025503305283 2.1189980769230767 Q 3.6754025503305283 2.123325 3.6748256272536053 2.125632692307692 L 3.4175179349459133 2.125632692307692 Q 3.4204025503305284 2.1579403846153844 3.43569101186899 2.1830365384615384 Q 3.4509794734074517 2.208132692307692 3.4754987041766823 2.2228442307692307 Q 3.5000179349459133 2.2375557692307693 3.528864088792067 2.2375557692307693 Q 3.558287165715144 2.2375557692307693 3.584537165715144 2.222555769230769 Q 3.610787165715144 2.207555769230769 3.6211717810997595 2.183325 L 3.655210242638221 2.192555769230769 Q 3.6459794734074515 2.213901923076923 3.6269410118689898 2.231209615384615 Q 3.6079025503305284 2.2485173076923077 3.5822294734074513 2.258036538461538 Q 3.5565563964843747 2.267555769230769 3.5271333195612975 2.267555769230769 M 3.4163640887920668 2.0973634615384613 L 3.6384794734074517 2.0973634615384613 Q 3.636171781099759 2.064478846153846 3.6208833195612975 2.039671153846154 Q 3.6055948580228363 2.0148634615384613 3.5810756272536053 2.000728846153846 Q 3.5565563964843747 1.9865942307692306 3.5271333195612975 1.9865942307692306 Q 3.4977102426382207 1.9865942307692306 3.4734794734074517 2.000728846153846 Q 3.449248704176682 2.0148634615384613 3.4339602426382205 2.0399596153846153 Q 3.4186717810997593 2.065055769230769 3.4163640887920668 2.0973634615384613 M 3.8874074143629804 1.995825 Q 3.8481766451322112 1.996978846153846 3.818465106670673 2.017748076923077 Q 3.7887535682091342 2.0385173076923073 3.7766381835937497 2.0748634615384614 L 3.7766381835937497 2.2617865384615383 L 3.7374074143629805 2.2617865384615383 L 3.7374074143629805 1.9612096153846152 L 3.7743304912860576 1.9612096153846152 L 3.7743304912860576 2.0333249999999996 Q 3.7899074143629803 2.0015942307692307 3.8155804912860574 1.981978846153846 Q 3.8412535682091344 1.9623634615384613 3.870099722055288 1.960055769230769 Q 3.875868952824519 1.959478846153846 3.880195875901442 1.959478846153846 Q 3.8845227989783653 1.959478846153846 3.8874074143629804 1.960055769230769 L 3.8874074143629804 1.995825" fill="#ffffff" fill-rule="nonzero"></path></g></g><defs><clipPath id="SvgjsClipPath98734"><path d=" M 0.28918985723493695 -3.532553047107841 h 3.738705246467626 v 3.282553047107841 h -3.738705246467626 Z"></path></clipPath><clipPath id="a13e484c2-f821-4ea1-895d-a1fb0ce86a581fb956b1-7dd8-44eb-ae5f-c1aeaf505212"><path d=" M 0.28918985723493695 -0.25 L 4.027876326290498 -0.25 L 4.027876326290498 -3.532544840725223 L 0.28918985723493695 -3.532544840725223 Z"></path></clipPath><clipPath id="SvgjsClipPath987291fb956b1-7dd8-44eb-ae5f-c1aeaf505212"><path d=" M 0.28918985723493695 -3.532553047107841 L 4.027895103702563 -3.532553047107841 L 4.027895103702563 -0.25 L 0.28918985723493695 -0.25 Z"></path></clipPath><clipPath id="b13e484c2-f821-4ea1-895d-a1fb0ce86a581fb956b1-7dd8-44eb-ae5f-c1aeaf505212"><path d=" M 0.28918985723493695 -0.25 L 4.027876326290498 -0.25 L 4.027876326290498 -3.532544840725223 L 0.28918985723493695 -3.532544840725223 Z"></path></clipPath></defs></svg>